<?xml version="1.0" encoding="utf-8"?>
<!-- Generator: Adobe Illustrator 13.0.0, SVG Export Plug-In . SVG Version: 6.00 Build 14948)  -->
<!DOCTYPE svg PUBLIC "-//W3C//DTD SVG 1.1//EN" "http://www.w3.org/Graphics/SVG/1.1/DTD/svg11.dtd">
<svg version="1.1" id="Ebene_1" xmlns="http://www.w3.org/2000/svg" xmlns:xlink="http://www.w3.org/1999/xlink" x="0px" y="0px"
	 width="100px" height="100px" viewBox="0 0 100 100" enable-background="new 0 0 100 100" xml:space="preserve">
<g>
	<rect x="7.898" y="51.873" fill="#FFFFFF" width="33.45" height="16.727"/>
	<rect x="5.807" y="41.421" fill="#FFFFFF" width="37.628" height="9.407"/>
	<path fill="#FFFFFF" d="M26.282,39.076c0,0,3.679-18.385,13.976-13.239c0,0,8.824,6.376-12.751,13.729
		c0,0,14.711-7.844,10.054-11.278C37.561,28.288,33.391,25.837,26.282,39.076z"/>
	<path fill="#FFFFFF" d="M24.744,39.021c0,0-10.138-15.772-17.847-7.222c0,0-5.886,9.158,16.886,8.125c0,0-16.56-1.929-13.477-6.827
		C10.307,33.098,13.292,29.292,24.744,39.021z"/>
</g>
<g opacity="0.75">
	<g>
		<rect x="70.523" y="31.415" fill="#FFFFFF" width="21.448" height="10.726"/>
		<rect x="69.182" y="24.713" fill="#FFFFFF" width="24.129" height="6.032"/>
		<path fill="#FFFFFF" d="M82.312,23.209c0,0,2.358-11.789,8.961-8.489c0,0,5.659,4.088-8.176,8.803c0,0,9.433-5.03,6.446-7.231
			C89.543,16.292,86.869,14.72,82.312,23.209z"/>
		<path fill="#FFFFFF" d="M81.325,23.173c0,0-6.501-10.113-11.444-4.63c0,0-3.773,5.873,10.828,5.21c0,0-10.619-1.237-8.642-4.378
			C72.067,19.375,73.981,16.936,81.325,23.173z"/>
	</g>
	<g>
		<rect x="70.523" y="68.665" fill="#FFFFFF" width="21.448" height="10.726"/>
		<rect x="69.182" y="61.963" fill="#FFFFFF" width="24.129" height="6.032"/>
		<path fill="#FFFFFF" d="M82.312,60.459c0,0,2.358-11.789,8.961-8.489c0,0,5.659,4.089-8.176,8.804c0,0,9.433-5.03,6.446-7.232
			C89.543,53.541,86.869,51.97,82.312,60.459z"/>
		<path fill="#FFFFFF" d="M81.325,60.424c0,0-6.501-10.114-11.444-4.631c0,0-3.773,5.873,10.828,5.21c0,0-10.619-1.237-8.642-4.378
			C72.067,56.625,73.981,54.186,81.325,60.424z"/>
	</g>
</g>
<g>
	<line fill="#FFFFFF" stroke="#FFFFFF" stroke-width="3" x1="49.309" y1="43.264" x2="64.559" y2="43.264"/>
	<line fill="#FFFFFF" stroke="#FFFFFF" stroke-width="3" x1="49.309" y1="50.264" x2="64.559" y2="50.264"/>
</g>
</svg>
