<?xml version="1.0" encoding="utf-8"?>
<!-- Generator: Adobe Illustrator 13.0.0, SVG Export Plug-In . SVG Version: 6.00 Build 14948)  -->
<!DOCTYPE svg PUBLIC "-//W3C//DTD SVG 1.1//EN" "http://www.w3.org/Graphics/SVG/1.1/DTD/svg11.dtd">
<svg version="1.1" id="Calque_1" xmlns="http://www.w3.org/2000/svg" xmlns:xlink="http://www.w3.org/1999/xlink" x="0px" y="0px"
	 width="120px" height="120px" viewBox="0 0 120 120" enable-background="new 0 0 120 120" xml:space="preserve">
<g>
	<g>
		<path fill="#FFFFFF" d="M38.887,98.065h0.667v1.674v3.875c0,0-0.021,2.451,2.13,2.451c2.148,0,16.247,0,16.247,0
			s3.386,0.564,3.386-3.169c0-3.172-2.609-3.167-3.376-3.167c-0.769,0-1.077,1.136-1.077,1.136s1.483-0.213,1.589,0.423
			c0.105,0.635,0.105,2.065-2.437,1.006c-2.542-1.06-1.583-4.229-4.025-4.229c-1.137,0-1.921,0-4.457,0
			c0.467,0,0.688-0.491,0.688-0.958v-1.676c0-0.468-0.222-0.699-0.688-0.699h-1.645l2.333-10.74
			c3.667-0.701,6.742-3.796,7.299-7.671l1.493-20.56c-0.53-4.535-4.384-7.697-9.059-7.697H28.216c-4.618,0-8.433,3.076-9.035,7.532
			l1.511,20.502c0.478,4.024,3.862,7.251,7.529,7.916l2.333,10.717h-1.65c-0.468,0-0.683,0.23-0.683,0.699v1.677
			c0,0.467,0.215,0.958,0.683,0.958c-2.516,0-3.263,0-4.387,0c-2.441,0-1.483,3.169-4.025,4.229
			c-2.543,1.06-2.543-0.345-2.437-0.979c0.106-0.635,1.589-0.437,1.589-0.437s-0.31-1.143-1.077-1.143
			c-0.768,0-3.378-0.008-3.378,3.164c0,3.732,3.387,3.164,3.387,3.164s14.169,0,16.319,0c2.149,0,1.994-2.45,1.994-2.45v-3.875
			v-1.675h0.667 M37.554,94.732h-1l-2.333-10.667h8l-2.333,10.667h-1 M23.221,70.065h7v-0.529c0-1.168,0.684-2.137,1.852-2.137
			h11.167c1.167,0,1.98,0.969,1.98,2.137v0.529h7.647l0.021,3H45.22v1.755c0,1.168-0.814,1.912-1.98,1.912H32.072
			c-1.167,0-1.852-0.744-1.852-1.912v-1.755h-7V70.065z"/>
		<path fill="#FFFFFF" d="M38.085,45.611c6.168,0,11.17-5.001,11.17-11.17c0-8.604,4.499-12.04,8.414-12.48
			c0.013,1.907,1.562,3.448,3.471,3.448c1.918,0,3.472-1.554,3.472-3.471c0-1.917-1.554-3.471-3.472-3.471
			c-0.756,0-1.455,0.243-2.026,0.654c-2.264-2.636-6.413-6.171-12.381-6.171c-18.344,0-19.445,16.308-19.769,20.444
			c-0.027,0.293-0.042,0.589-0.047,0.888c-0.002,0.104-0.002,0.159-0.002,0.159C26.915,40.61,31.917,45.611,38.085,45.611z"/>
		<rect x="32.887" y="70.398" fill="#FFFFFF" width="9.667" height="3.333"/>
	</g>
	<path fill="#FFFFFF" d="M45.353,40.782c0,0,8.092,1.831,10.497-4.427c2.407-6.26,5.217-6.45,5.217-6.45s-5.016-3.006-9.809-1.234
		C46.466,30.443,42.642,35.7,45.353,40.782z"/>
	<path fill="#FFFFFF" d="M31.986,40.782c0,0-8.092,1.831-10.498-4.427c-2.407-6.26-5.218-6.45-5.218-6.45s5.016-3.006,9.809-1.234
		C30.873,30.443,34.697,35.7,31.986,40.782z"/>
	<path fill="#FFFFFF" d="M19.261,55.115c0,0-6.151,7.395-6.485,9.394c-0.333,2.001,5.444,7.556,4.667,8.334
		c-0.778,0.777-2.889,1.778-2.333,2.777c0.555,1.001,1.777,3.334,2.777,3.001c1-0.334,3.445-1.54,3.445-1.54L19.261,55.115z"/>
	<path fill="#FFFFFF" d="M56.611,55.115c0,0,6.151,7.395,6.484,9.394c0.334,2.001-5.444,7.556-4.667,8.334
		c0.779,0.777,2.891,1.778,2.334,2.777c-0.556,1.001-1.777,3.334-2.778,3.001c-0.999-0.334-3.444-1.54-3.444-1.54L56.611,55.115z"/>
</g>
<g>
	<path fill="#FFFFFF" d="M111.486,55.259c0.863,0.92,1.125,2.42,0.705,3.754c-0.569,1.803-2.553,3.163-5.109,3.721
		c-2.871,0.622-5.052,0.55-6.163,0.55c0-1.206,0-5.108,0-5.108s0.538,0,1.315,0c2.073,0,4.777-1.146,6.334-3.481
		c1.557-2.333,1.852-4.296,1.852-5.705c0-1.588-0.08-4.814-1.428-7.506c-0.409-0.819-1.232-0.593-1.095,0.314
		c0.177,1.176-0.212,2.667-0.728,3.726c-0.647,1.333-2.343,4.503-8.196,4.503c-5.852,0-10.297-4.63-15.52-10.78
		c-5.225-6.149-9.335-8.689-15.004-8.689c-5.667,0.001-7.554,3.699-7.554,5.144c0,1.804,0.928,2.83,2.705,2.83
		c2.338,0,2.293-2.396,2.293-2.396s3.928-1.037,3.928,5.15c0,2.593-1.333,7.333-1.333,9.963c0,5.15,2.74,6.928,5.148,6.928
		c0.63,0,1.777,0,1.777,0v5.112c0,0-10.752,0-10.998,0c-0.416,0-0.569,0.122-0.569,0.552c0,0.148,0,0.993,0,1.216
		c0,0.275,0.217,0.428,0.569,0.428c3.858,0,35.545,0,36.781,0c1.218,0,3.553-0.003,6.314-0.669c2.202-0.531,5.54-2.255,6.186-5.002
		c0.6-2.55-0.224-4.717-1.466-5.29C111.521,54.193,111.084,54.829,111.486,55.259z M77.695,58.176h20.943v5.112H77.695V58.176z"/>
</g>
</svg>
