<?xml version="1.0" encoding="utf-8"?>
<!-- Generator: Adobe Illustrator 13.0.0, SVG Export Plug-In . SVG Version: 6.00 Build 14948)  -->
<!DOCTYPE svg PUBLIC "-//W3C//DTD SVG 1.1//EN" "http://www.w3.org/Graphics/SVG/1.1/DTD/svg11.dtd">
<svg version="1.1" id="Calque_1" xmlns="http://www.w3.org/2000/svg" xmlns:xlink="http://www.w3.org/1999/xlink" x="0px" y="0px"
	 width="120px" height="120px" viewBox="0 0 120 120" enable-background="new 0 0 120 120" xml:space="preserve">
<g>
	<g>
		<path fill="#FFFFFF" d="M38.887,98.065h0.667v1.674v3.875c0,0-0.021,2.451,2.13,2.451c2.148,0,16.247,0,16.247,0
			s3.386,0.564,3.386-3.169c0-3.172-2.609-3.167-3.376-3.167c-0.769,0-1.077,1.136-1.077,1.136s1.483-0.213,1.589,0.423
			c0.105,0.635,0.105,2.065-2.437,1.006c-2.542-1.06-1.583-4.229-4.025-4.229c-1.137,0-1.921,0-4.457,0
			c0.467,0,0.688-0.491,0.688-0.958v-1.676c0-0.468-0.222-0.699-0.688-0.699h-1.645l2.333-10.74
			c3.667-0.701,6.742-3.796,7.299-7.671l1.493-20.56c-0.53-4.535-4.384-7.697-9.059-7.697H28.216c-4.618,0-8.433,3.076-9.035,7.532
			l1.511,20.502c0.478,4.024,3.862,7.251,7.529,7.916l2.333,10.717h-1.65c-0.468,0-0.683,0.23-0.683,0.699v1.677
			c0,0.467,0.215,0.958,0.683,0.958c-2.516,0-3.263,0-4.387,0c-2.441,0-1.483,3.169-4.025,4.229
			c-2.543,1.06-2.543-0.345-2.437-0.979c0.106-0.635,1.589-0.437,1.589-0.437s-0.31-1.143-1.077-1.143
			c-0.768,0-3.378-0.008-3.378,3.164c0,3.732,3.387,3.164,3.387,3.164s14.169,0,16.319,0c2.149,0,1.994-2.45,1.994-2.45v-3.875
			v-1.675h0.667 M37.554,94.732h-1l-2.333-10.667h8l-2.333,10.667h-1 M23.221,70.065h7v-0.529c0-1.168,0.684-2.137,1.852-2.137
			h11.167c1.167,0,1.98,0.969,1.98,2.137v0.529h7.647l0.021,3H45.22v1.755c0,1.168-0.814,1.912-1.98,1.912H32.072
			c-1.167,0-1.852-0.744-1.852-1.912v-1.755h-7V70.065z"/>
		<path fill="#FFFFFF" d="M38.085,45.611c6.168,0,11.17-5.001,11.17-11.17c0-8.604,4.499-12.04,8.414-12.48
			c0.013,1.907,1.562,3.448,3.471,3.448c1.918,0,3.472-1.554,3.472-3.471c0-1.917-1.554-3.471-3.472-3.471
			c-0.756,0-1.455,0.243-2.026,0.654c-2.264-2.636-6.413-6.171-12.381-6.171c-18.344,0-19.445,16.308-19.769,20.444
			c-0.027,0.293-0.042,0.589-0.047,0.888c-0.002,0.104-0.002,0.159-0.002,0.159C26.915,40.61,31.917,45.611,38.085,45.611z"/>
		<rect x="32.887" y="70.398" fill="#FFFFFF" width="9.667" height="3.333"/>
	</g>
	<path fill="#FFFFFF" d="M45.353,40.782c0,0,8.092,1.831,10.497-4.427c2.407-6.26,5.217-6.45,5.217-6.45s-5.016-3.006-9.809-1.234
		C46.466,30.443,42.642,35.7,45.353,40.782z"/>
	<path fill="#FFFFFF" d="M31.986,40.782c0,0-8.092,1.831-10.498-4.427c-2.407-6.26-5.218-6.45-5.218-6.45s5.016-3.006,9.809-1.234
		C30.873,30.443,34.697,35.7,31.986,40.782z"/>
	<path fill="#FFFFFF" d="M19.261,55.115c0,0-6.151,7.395-6.485,9.394c-0.333,2.001,5.444,7.556,4.667,8.334
		c-0.778,0.777-2.889,1.778-2.333,2.777c0.555,1.001,1.777,3.334,2.777,3.001c1-0.334,3.445-1.54,3.445-1.54L19.261,55.115z"/>
	<path fill="#FFFFFF" d="M56.611,55.115c0,0,6.151,7.395,6.484,9.394c0.334,2.001-5.444,7.556-4.667,8.334
		c0.779,0.777,2.891,1.778,2.334,2.777c-0.556,1.001-1.777,3.334-2.778,3.001c-0.999-0.334-3.444-1.54-3.444-1.54L56.611,55.115z"/>
</g>
<g>
	<path fill="#FFFFFF" d="M97.686,69.445c2.381-0.107,5.005-0.486,6.273-2.793c0.476-0.537,2.936-4.414,2.73-4.963
		c0.94-1.71-7.517,0.01-8.294,0.135c2.079-2.324,1.921-6.725,2.302-9.622c0.611-4.643-0.014-4.929,4.498-6.218
		c4.41-1.26-1.834-3.068-3.264-3.503c-1.846-0.562-4.654-5.776-5.229-5.776c-1.021,0,1.153,3.671,0.133,3.671
		c-2.048,0-2.011-4.409-3.329-4.409c-0.72,0,0.186,2.093,0.186,2.367c0.001,1.444-3.304-2.908-3.134-2.908
		c-1.819,0,2.023,4.31,2.403,4.527c1.575,0.9,3.15,1.8,4.725,2.7c-1.329,0.082-2.658,0.164-3.988,0.246
		c0.799,1.112,1.882,1.686,3.252,1.721c-1.571,5.387-2.42,10.057-8.449,11.88c-4.465,1.351-9.788,2.162-13.846,4.537
		c-3.106,1.82-2.285,2.764-2.285,5.705c0,3.951-3.127,4.246-5.162,6.635c-1.312,1.541-2.098,4.014-3.037,5.812
		c-1.043,1.994-3.075,1.035-2.617,4.266c4.805-1.58,6.104-7.176,11.135-8.902c2.868-0.982,5.365-2.332,6.865-5.121
		c1.639-3.047,11.717-3.049,15.649-4.668c0.091,0.332,0.182,0.664,0.271,0.994c2.704-0.738,5.408-1.475,8.112-2.211
		C102.259,67.361,98.678,65.777,97.686,69.445"/>
</g>
</svg>
