<svg xmlns="http://www.w3.org/2000/svg" xmlns:xlink="http://www.w3.org/1999/xlink" version="1.1" id="Calque_1" x="0px" y="0px" width="100.0px" height="100px" viewBox="0 0 283.46 283.46" enable-background="new 0 0 283.46 283.46" xml:space="preserve">
<g>
	<path d="M139.23,256.23h2v5.022v11.627c0,0-0.063,7.351,6.387,7.351c6.448,0,48.742,0,48.742,0s10.16,1.693,10.16-9.504   c0-9.516-7.83-9.503-10.132-9.503c-2.304,0-3.232,3.406-3.232,3.406s4.449-0.639,4.768,1.268c0.317,1.906,0.317,6.196-7.31,3.019   c-7.628-3.178-4.754-12.686-12.076-12.686c-3.415,0-5.764,0-13.375,0c1.404,0,2.068-1.47,2.068-2.873v-5.028   c0-1.404-0.664-2.099-2.068-2.099h-4.932l7-32.221c11-2.1,20.223-11.384,21.895-23.011l4.481-61.679   c-1.586-13.604-13.149-23.09-27.174-23.09h-59.218c-13.853,0-25.297,9.229-27.103,22.594l4.532,61.508   c1.432,12.072,11.587,21.752,22.587,23.747l7,32.151h-4.951c-1.405,0-2.049,0.694-2.049,2.099v5.028   c0,1.403,0.644,2.873,2.049,2.873c-7.547,0-9.789,0-13.162,0c-7.323,0-4.449,9.508-12.077,12.686   c-7.627,3.178-7.627-1.029-7.309-2.937c0.318-1.905,4.767-1.308,4.767-1.308s-0.928-3.427-3.231-3.427   c-2.303,0-10.133-0.024-10.133,9.492c0,11.197,10.16,9.493,10.16,9.493s42.506,0,48.955,0c6.448,0,5.981-7.351,5.981-7.351v-11.627   v-5.022h2 M135.23,246.23h-3l-7-32h24l-7,32h-3 M92.23,172.23h21v-1.588c0-3.502,2.053-6.412,5.554-6.412h33.5   c3.501,0,5.945,2.91,5.945,6.412v1.588h22.939l0.061,9h-23v5.266c0,3.501-2.444,5.734-5.945,5.734h-33.5   c-3.501,0-5.554-2.233-5.554-5.734v-5.266h-21V172.23z"/>
	<path d="M136.823,98.867c18.506,0,33.51-15.003,33.51-33.51c0-25.812,13.496-36.119,25.244-37.443   c0.036,5.721,4.684,10.347,10.412,10.347c5.751,0,10.412-4.662,10.412-10.414c0-5.75-4.661-10.412-10.412-10.412   c-2.27,0-4.369,0.729-6.08,1.962c-6.793-7.91-19.238-18.516-37.146-18.516c-55.03,0-58.334,48.924-59.303,61.333   c-0.082,0.879-0.129,1.768-0.142,2.665c-0.007,0.312-0.005,0.478-0.005,0.478C103.314,83.864,118.316,98.867,136.823,98.867z"/>
	<rect x="121.23" y="173.23" width="29" height="10"/>
</g>
<path d="M158.625,84.381c0,0,24.276,5.495,31.494-13.282c7.22-18.778,15.651-19.349,15.651-19.349s-15.047-9.021-29.427-3.704  C161.966,53.363,150.494,69.134,158.625,84.381z"/>
<path d="M118.527,84.381c0,0-24.276,5.495-31.494-13.282C79.813,52.321,71.381,51.75,71.381,51.75s15.047-9.021,29.427-3.704  C115.186,53.363,126.659,69.134,118.527,84.381z"/>
<path d="M80.35,127.381c0,0-18.453,22.182-19.453,28.182s16.333,22.666,14,25s-8.667,5.334-7,8.334s5.333,10,8.333,9  s10.333-4.62,10.333-4.62L80.35,127.381z"/>
<path d="M192.402,127.381c0,0,18.453,22.182,19.453,28.182s-16.333,22.666-14,25s8.667,5.334,7,8.334s-5.333,10-8.333,9  s-10.334-4.62-10.334-4.62L192.402,127.381z"/>
</svg>