<svg xmlns="http://www.w3.org/2000/svg" xmlns:xlink="http://www.w3.org/1999/xlink" version="1.1" id="Ebene_1" x="0px" y="0px" width="100px" height="100px" viewBox="0 0 100 100" enable-background="new 0 0 100 100" xml:space="preserve">
<rect x="34.648" y="55.109" fill="#000000" width="33.45" height="16.727"/>
<rect x="32.557" y="44.657" fill="#000000" width="37.628" height="9.407"/>
<path fill="#000000" d="M53.032,42.312c0,0,3.679-18.384,13.976-13.239c0,0,8.824,6.376-12.751,13.729  c0,0,14.711-7.844,10.054-11.278C64.311,31.524,60.141,29.073,53.032,42.312z"/>
<path fill="#000000" d="M51.494,42.257c0,0-10.138-15.772-17.847-7.222c0,0-5.886,9.159,16.886,8.125c0,0-16.56-1.929-13.477-6.827  C37.057,36.334,40.042,32.529,51.494,42.257z"/>
</svg>