<?xml version="1.0" encoding="utf-8"?>
<!-- Generator: Adobe Illustrator 13.0.0, SVG Export Plug-In . SVG Version: 6.00 Build 14948)  -->
<!DOCTYPE svg PUBLIC "-//W3C//DTD SVG 1.1//EN" "http://www.w3.org/Graphics/SVG/1.1/DTD/svg11.dtd">
<svg version="1.1" id="Ebene_1" xmlns="http://www.w3.org/2000/svg" xmlns:xlink="http://www.w3.org/1999/xlink" x="0px" y="0px"
	 width="55px" height="55px" viewBox="23.5 23.5 55 55" enable-background="new 23.5 23.5 55 55" xml:space="preserve">
<g>
	<rect x="35.591" y="55.773" fill="#FFFFFF" width="33.45" height="16.727"/>
	<rect x="33.5" y="45.321" fill="#FFFFFF" width="37.629" height="9.407"/>
	<path fill="#FFFFFF" d="M53.976,42.976c0,0,3.679-18.384,13.976-13.238c0,0,8.824,6.376-12.751,13.729
		c0,0,14.711-7.844,10.054-11.278C65.254,32.188,61.084,29.737,53.976,42.976z"/>
	<path fill="#FFFFFF" d="M52.438,42.921c0,0-10.139-15.772-17.848-7.222c0,0-5.886,9.158,16.887,8.125c0,0-16.561-1.93-13.478-6.827
		C38,36.998,40.985,33.192,52.438,42.921z"/>
</g>
</svg>
