<svg xmlns="http://www.w3.org/2000/svg" xmlns:xlink="http://www.w3.org/1999/xlink" version="1.1" id="Your_Icon" x="0px" y="0px" width="100px" height="100px" viewBox="0 0 100 100" enable-background="new 0 0 100 100" xml:space="preserve">
<path fill="#ffffff" d="M78.234,70.829c4.957-0.221,10.42-1.01,13.063-5.815c0.989-1.118,6.112-9.188,5.683-10.334  c1.96-3.56-15.648,0.021-17.268,0.284c4.329-4.84,4-14.004,4.794-20.035c1.271-9.666-0.03-10.262,9.365-12.946  c9.182-2.623-3.818-6.388-6.796-7.294c-3.842-1.169-9.691-12.027-10.888-12.027c-2.126,0,2.401,7.644,0.276,7.644  c-4.263,0-4.186-9.179-6.931-9.179c-1.498,0,0.387,4.357,0.387,4.927C69.921,9.061,63.039,0,63.395,0  c-3.79,0,4.212,8.973,5.003,9.425c3.279,1.874,6.558,3.748,9.837,5.622c-2.768,0.17-5.536,0.341-8.305,0.512  c1.664,2.314,3.92,3.509,6.771,3.582c-3.271,11.217-5.039,20.939-17.592,24.736c-9.294,2.812-20.379,4.5-28.826,9.448  c-6.469,3.788-4.76,5.754-4.76,11.875c0,8.23-6.51,8.841-10.748,13.818c-2.729,3.206-4.366,8.355-6.322,12.1  C6.281,95.27,2.05,93.273,3.005,100c10.003-3.292,12.707-14.944,23.182-18.535c5.971-2.047,11.171-4.855,14.293-10.663  c3.413-6.345,24.397-6.349,32.584-9.718c0.188,0.689,0.377,1.379,0.564,2.068c5.629-1.536,11.259-3.071,16.889-4.605  C87.757,66.492,80.3,63.194,78.234,70.829"/>
</svg>