<svg xmlns="http://www.w3.org/2000/svg" xmlns:xlink="http://www.w3.org/1999/xlink" version="1.1" x="0px" y="0px" width="100px" height="100px" viewBox="0 0 100 100" enable-background="new 0 0 100 100" xml:space="preserve">
<g id="Captions">
</g>
<g>
	<path fill="#ffffff" d="M55,58.422V59c0,1.656-1.344,3-3,3h-0.598h-4.76H46c-1.657,0-3-1.344-3-3v-0.666c-5.52,0.235-10.396,0.742-14.496,1.574   c-2.153,8.691-3.611,14.371,20.495,14.371c23.956,0,23.227-5.557,21.376-14.16C66.238,59.299,61.12,58.731,55,58.422z    M49.183,67.565c-0.544,0-0.985-0.44-0.985-0.984s0.441-0.986,0.985-0.986s0.985,0.442,0.985,0.986S49.727,67.565,49.183,67.565z"/>
	<path fill="#ffffff" d="M59.502,19.617c0.232,0.04,0.468,0.065,0.709,0.065c2.338,0,4.232-1.896,4.232-4.233s-1.895-4.233-4.232-4.233   c-1.006,0-1.927,0.352-2.653,0.937c-1.143-3.148-3.011-6.282-5.432-7.092c-3.444-1.152-8.452,1.932-11.474,7.32   c-1.113,1.984-2.052,3.523-2.28,4.699C45.543,16.625,52.641,17.478,59.502,19.617z"/>
	<ellipse fill="#ffffff" transform="matrix(0.2267 0.974 -0.974 0.2267 54.2848 -17.5539)" cx="38.197" cy="25.41" rx="2.576" ry="1.329"/>
	<path fill="#ffffff" d="M40.479,22.501c0,3.143,2.315,3.284,5.53,3.203c0.001,1.627,1.205,2.946,2.689,2.946c1.485,0,2.689-1.318,2.691-2.945   c3.152,0.079,5.354-0.075,5.354-3.204c0-1.992-3.528-2.38-8.217-2.392C44.619,20.121,40.479,20.51,40.479,22.501z M47.239,23.228   c-0.311,0.22-0.579,0.507-0.784,0.846c-0.06,0.012-0.117,0.037-0.181,0.037c-0.544,0-0.985-0.441-0.985-0.985   c0-0.544,0.441-0.985,0.985-0.985c0.544,0,0.985,0.441,0.985,0.985C47.26,23.162,47.244,23.193,47.239,23.228z M51.094,22.141   c0.544,0,0.984,0.441,0.984,0.985c0,0.544-0.44,0.985-0.984,0.985c-0.053,0-0.099-0.022-0.15-0.031   c-0.212-0.353-0.493-0.646-0.819-0.872c-0.002-0.029-0.017-0.053-0.017-0.083C50.108,22.582,50.549,22.141,51.094,22.141z"/>
	<path fill="#ffffff" d="M56.227,85.706c0.441-2.534,1.195-6.055,2.6-9.733C56.062,76.215,53,76.363,50,76.387v12.736   c0,1.111,0.077,2.615,5.391,4.817c4.775,1.979,12.179,2.786,13.251-1.091C70.484,86.177,66.837,86.619,56.227,85.706z"/>
	<path fill="#ffffff" d="M42.661,85.706c-10.609,0.913-14.378,0.471-12.534,7.144c1.071,3.877,8.622,3.07,13.397,1.091   C48.837,91.738,49,90.234,49,89.123V76.387c-3-0.023-6.178-0.172-8.94-0.414C41.462,79.651,42.22,83.172,42.661,85.706z"/>
	<g>
		<path fill="#ffffff" d="M78.471,17.266c-7.936-1.035-12.115,2.899-17.127,6.867c-0.097-0.655-0.375-1.133-0.794-1.231    c-0.715-0.167-1.557,0.821-1.878,2.208c-0.323,1.385-0.004,2.643,0.71,2.81c0.203,0.047,0.415-0.007,0.624-0.128    c0.07,0.782-0.025,1.513-0.243,2.092c0.158,0.373,0.249,0.803,0.249,1.263c0,1.389-0.822,2.516-1.845,2.549    c0.025,0.355-0.011,0.733-0.117,1.115c-0.382,1.357-1.506,2.229-2.512,1.947c-0.071-0.021-0.14-0.048-0.208-0.079    c-0.129,0.207-0.319,0.391-0.547,0.546c-1.57,2.101-3.645,3.392-5.927,3.392c-2.469,0-4.7-1.5-6.306-3.917    c-0.05,0.021-0.1,0.042-0.152,0.057c-1.006,0.283-2.13-0.588-2.512-1.946c-0.107-0.381-0.142-0.76-0.117-1.114    c-1.022-0.034-1.845-1.161-1.845-2.549c0-0.46,0.092-0.89,0.249-1.263c-0.107-0.285-0.182-0.606-0.226-0.951    c-3.688,0.798-7.458,2.341-11.21,6.427c-5.209,5.673-4.993,11.553-2.491,15.927c0.089-0.214,0.19-0.425,0.316-0.627    c0.275-0.441,0.617-0.815,1.007-1.119c0.688-0.711,2.124-1.385,3.849-1.729c2.545-0.506,4.755-0.103,4.937,0.9    c0.108,0.598-0.526,1.273-1.595,1.83c1.72,1.29,3.249,3.049,2.248,5.722c2.486-0.311,5.169-0.39,8.015-0.486    C43.139,54.227,44.419,53,46,53h0.643h4.76H52c1.613,0,2.918,1.275,2.987,2.871c5.837,0.291,10.776,0.835,14.854,1.593    c-0.44-2.167-0.819-4.53-0.819-6.957c0-0.25-0.009-0.521-0.014-0.768c1.44,0.688,3.088,1.183,5.038,1.438    c13.206,1.723,21.722-7.14,22.738-14.173C97.683,29.19,91.678,18.99,78.471,17.266z M49.183,47.292    c-0.544,0-0.985-0.441-0.985-0.985c0-0.544,0.441-0.985,0.985-0.985s0.985,0.441,0.985,0.985    C50.167,46.852,49.727,47.292,49.183,47.292z M67.896,45.299c-2.281,1.484-6.987,2.345-8.33-0.083    c-1.769-3.198-0.081-5.206,1.829-6.639c-1.07-0.556-1.705-1.232-1.597-1.83c0.184-1.003,2.394-1.407,4.938-0.901    c1.727,0.344,3.16,1.018,3.849,1.729c0.39,0.303,0.733,0.677,1.008,1.119C70.939,40.858,70.179,43.814,67.896,45.299z"/>
		<path fill="#ffffff" d="M51,55h-4c-1.104,0-2,0.896-2,2v1c0,1.104,0.896,2,2,2h4c1.104,0,2-0.896,2-2v-1C53,55.896,52.104,55,51,55z"/>
	</g>
</g>
</svg>