<svg xmlns="http://www.w3.org/2000/svg" xmlns:xlink="http://www.w3.org/1999/xlink" version="1.1" x="0px" y="0px" width="100px" height="100px" viewBox="0 0 100 100" enable-background="new 0 0 100 100" xml:space="preserve">
<g>
	<path fill="#ffffff" d="M95.45,63.656c1.63,1.737,2.123,4.567,1.331,7.082c-1.074,3.402-4.816,5.97-9.641,7.021   c-5.416,1.175-9.53,1.038-11.626,1.038c0-2.276,0-9.638,0-9.638s1.014,0,2.481,0c3.912,0,9.014-2.164,11.95-6.569   c2.937-4.402,3.495-8.106,3.495-10.764c0-2.997-0.153-9.084-2.695-14.163c-0.772-1.545-2.326-1.118-2.065,0.594   c0.334,2.219-0.4,5.03-1.373,7.03c-1.222,2.515-4.421,8.495-15.464,8.495c-11.04,0-19.429-8.736-29.283-20.338   c-9.857-11.602-17.612-16.394-28.308-16.394C3.561,17.052,0,24.029,0,26.755c0,3.402,1.75,5.339,5.104,5.339   c4.411,0,4.326-4.521,4.326-4.521s7.411-1.956,7.411,9.717c0,4.893-2.515,13.837-2.515,18.798c0,9.717,5.169,13.07,9.714,13.07   c1.189,0,3.353,0,3.353,0v9.646c0,0-20.286,0-20.751,0c-0.784,0-1.074,0.23-1.074,1.041c0,0.28,0,1.874,0,2.293   c0,0.521,0.408,0.809,1.074,0.809c7.281,0,67.066,0,69.397,0c2.299,0,6.704-0.006,11.915-1.263   c4.155-1.003,10.453-4.255,11.67-9.438c1.132-4.811-0.422-8.898-2.765-9.98C95.516,61.646,94.691,62.846,95.45,63.656z    M31.696,69.16h39.515v9.646H31.696V69.16z"/>
</g>
</svg>